# xmcd CD database file
#
# Track frame offsets:
#	152
#	16665
#	40521
#	54968
#	70889
#	87807
#	106203
#	125380
#	143684
#	160348
#	188629
#	204762
#
# Disc length: 2897 seconds
#
# Revision: 0
# Processed by: cddbd v1.5.2PL0 Copyright (c) Steve Scherf et al.
# Submitted via: CDex 1.51
#
DISCID=890b4f0c
DTITLE=Dave Nevling and The Blues Kats - That Look
DYEAR=2000
DGENRE=Blues
TTITLE0=Laughing To Keep From Crying
TTITLE1=Tell Me Baby
TTITLE2=Sweet Tooth
TTITLE3=All I Need
TTITLE4=That Look
TTITLE5=Louisa
TTITLE6=Swing Thing
TTITLE7=Why Didn't I
TTITLE8=Haunting Me
TTITLE9=High Price To Pay
TTITLE10=Short and Stout
TTITLE11=Laid Back
EXTD=YEAR: 2000
EXTT0=
EXTT1=
EXTT2=
EXTT3=
EXTT4=
EXTT5=
EXTT6=
EXTT7=
EXTT8=
EXTT9=
EXTT10=
EXTT11=
PLAYORDER=
